<?xml version="1.0" encoding="utf-8" standalone="no"?>
<!DOCTYPE svg PUBLIC "-//W3C//DTD SVG 1.1//EN"
  "http://www.w3.org/Graphics/SVG/1.1/DTD/svg11.dtd">
<!-- Created with matplotlib (http://matplotlib.org/) -->
<svg height="345pt" version="1.1" viewBox="0 0 460 345" width="460pt" xmlns="http://www.w3.org/2000/svg" xmlns:xlink="http://www.w3.org/1999/xlink">
 <defs>
  <style type="text/css">
*{stroke-linecap:butt;stroke-linejoin:round;}
  </style>
 </defs>
 <g id="figure_1">
  <g id="patch_1">
   <path d="M 0 345.6 
L 460.8 345.6 
L 460.8 0 
L 0 0 
z
" style="fill:#ffffff;"/>
  </g>
  <g id="axes_1">
   <g id="patch_2">
    <path d="M 57.6 162.432 
L 219.927273 162.432 
L 219.927273 41.472 
L 57.6 41.472 
z
" style="fill:#ffffff;"/>
   </g>
   <g id="matplotlib.axis_1">
    <g id="xtick_1">
     <g id="line2d_1">
      <defs>
       <path d="M 0 0 
L 0 3.5 
" id="mde492d3ac6" style="stroke:#000000;stroke-width:0.8;"/>
      </defs>
      <g>
       <use style="stroke:#000000;stroke-width:0.8;" x="64.978512" xlink:href="#mde492d3ac6" y="162.432"/>
      </g>
     </g>
     <g id="text_1">
      <!-- 0 -->
      <defs>
       <path d="M 4.4375 36.328125 
Q 4.4375 56.34375 11.078125 66.625 
Q 17.71875 76.90625 30.328125 76.90625 
Q 54.34375 76.90625 54.34375 38.140625 
Q 54.34375 19 47.578125 8.859375 
Q 40.828125 -1.265625 28.609375 -1.265625 
Q 17.09375 -1.265625 10.765625 8.34375 
Q 4.4375 17.96875 4.4375 36.328125 
z
M 14.203125 36.765625 
Q 14.203125 6.640625 29.5 6.640625 
Q 44.53125 6.640625 44.53125 37.25 
Q 44.53125 68.953125 29.78125 68.953125 
Q 14.203125 68.953125 14.203125 36.765625 
z
" id="MicrosoftYaHei-30"/>
      </defs>
      <g transform="translate(62.046481 177.42575)scale(0.1 -0.1)">
       <use xlink:href="#MicrosoftYaHei-30"/>
      </g>
     </g>
    </g>
    <g id="xtick_2">
     <g id="line2d_2">
      <g>
       <use style="stroke:#000000;stroke-width:0.8;" x="123.306674" xlink:href="#mde492d3ac6" y="162.432"/>
      </g>
     </g>
     <g id="text_2">
      <!-- 100 -->
      <defs>
       <path d="M 52.59375 0 
L 9.234375 0 
L 9.234375 8.25 
L 26.171875 8.25 
L 26.171875 65.671875 
L 8.796875 60.640625 
L 8.796875 69.4375 
L 35.6875 77.25 
L 35.6875 8.25 
L 52.59375 8.25 
z
" id="MicrosoftYaHei-31"/>
      </defs>
      <g transform="translate(114.51058 177.42575)scale(0.1 -0.1)">
       <use xlink:href="#MicrosoftYaHei-31"/>
       <use x="58.642578" xlink:href="#MicrosoftYaHei-30"/>
       <use x="117.285156" xlink:href="#MicrosoftYaHei-30"/>
      </g>
     </g>
    </g>
    <g id="xtick_3">
     <g id="line2d_3">
      <g>
       <use style="stroke:#000000;stroke-width:0.8;" x="181.634835" xlink:href="#mde492d3ac6" y="162.432"/>
      </g>
     </g>
     <g id="text_3">
      <!-- 200 -->
      <defs>
       <path d="M 51.171875 0 
L 5.171875 0 
L 5.171875 8.296875 
L 27.15625 30.21875 
Q 36.234375 39.3125 39.3125 44.609375 
Q 42.390625 49.90625 42.390625 55.5625 
Q 42.390625 62.015625 38.765625 65.453125 
Q 35.15625 68.890625 28.328125 68.890625 
Q 18.21875 68.890625 9.03125 60.296875 
L 9.03125 70.015625 
Q 17.96875 76.90625 29.828125 76.90625 
Q 40.046875 76.90625 45.953125 71.390625 
Q 51.859375 65.875 51.859375 56.546875 
Q 51.859375 49.515625 48.0625 42.75 
Q 44.28125 35.984375 33.734375 25.53125 
L 16.5 8.6875 
L 16.5 8.5 
L 51.171875 8.5 
z
" id="MicrosoftYaHei-32"/>
      </defs>
      <g transform="translate(172.838741 177.42575)scale(0.1 -0.1)">
       <use xlink:href="#MicrosoftYaHei-32"/>
       <use x="58.642578" xlink:href="#MicrosoftYaHei-30"/>
       <use x="117.285156" xlink:href="#MicrosoftYaHei-30"/>
      </g>
     </g>
    </g>
   </g>
   <g id="matplotlib.axis_2">
    <g id="ytick_1">
     <g id="line2d_4">
      <defs>
       <path d="M 0 0 
L -3.5 0 
" id="m61eea95b62" style="stroke:#000000;stroke-width:0.8;"/>
      </defs>
      <g>
       <use style="stroke:#000000;stroke-width:0.8;" x="57.6" xlink:href="#m61eea95b62" y="154.394045"/>
      </g>
     </g>
     <g id="text_4">
      <!-- 5.0 -->
      <defs>
       <path d="M 8.640625 11.625 
Q 16.265625 6.640625 24.515625 6.640625 
Q 32.328125 6.640625 37.109375 11 
Q 41.890625 15.375 41.890625 22.609375 
Q 41.890625 29.890625 37.03125 33.890625 
Q 32.171875 37.890625 22.953125 37.890625 
Q 18.5 37.890625 10.984375 37.203125 
L 10.984375 75.640625 
L 48.1875 75.640625 
L 48.1875 67.1875 
L 19.875 67.1875 
L 19.875 45.796875 
Q 24.125 46.046875 26.265625 46.046875 
Q 38.234375 46.046875 44.921875 39.984375 
Q 51.609375 33.9375 51.609375 23.296875 
Q 51.609375 12.3125 44.421875 5.515625 
Q 37.25 -1.265625 24.609375 -1.265625 
Q 14.015625 -1.265625 8.640625 1.859375 
z
" id="MicrosoftYaHei-35"/>
       <path d="M 5.8125 5.03125 
Q 5.8125 7.671875 7.609375 9.46875 
Q 9.421875 11.28125 12.109375 11.28125 
Q 14.84375 11.28125 16.640625 9.453125 
Q 18.453125 7.625 18.453125 5.03125 
Q 18.453125 2.484375 16.640625 0.65625 
Q 14.84375 -1.171875 12.0625 -1.171875 
Q 9.375 -1.171875 7.59375 0.65625 
Q 5.8125 2.484375 5.8125 5.03125 
z
" id="MicrosoftYaHei-2e"/>
      </defs>
      <g transform="translate(36.464062 158.39092)scale(0.1 -0.1)">
       <use xlink:href="#MicrosoftYaHei-35"/>
       <use x="58.642578" xlink:href="#MicrosoftYaHei-2e"/>
       <use x="82.714844" xlink:href="#MicrosoftYaHei-30"/>
      </g>
     </g>
    </g>
    <g id="ytick_2">
     <g id="line2d_5">
      <g>
       <use style="stroke:#000000;stroke-width:0.8;" x="57.6" xlink:href="#m61eea95b62" y="115.559592"/>
      </g>
     </g>
     <g id="text_5">
      <!-- 5.5 -->
      <g transform="translate(36.464062 119.556467)scale(0.1 -0.1)">
       <use xlink:href="#MicrosoftYaHei-35"/>
       <use x="58.642578" xlink:href="#MicrosoftYaHei-2e"/>
       <use x="82.714844" xlink:href="#MicrosoftYaHei-35"/>
      </g>
     </g>
    </g>
    <g id="ytick_3">
     <g id="line2d_6">
      <g>
       <use style="stroke:#000000;stroke-width:0.8;" x="57.6" xlink:href="#m61eea95b62" y="76.72514"/>
      </g>
     </g>
     <g id="text_6">
      <!-- 6.0 -->
      <defs>
       <path d="M 49.703125 65.921875 
Q 43.796875 68.953125 37.359375 68.953125 
Q 27.546875 68.953125 21.578125 60.40625 
Q 15.625 51.859375 15.53125 37.0625 
L 15.765625 37.0625 
Q 21.140625 47.46875 32.90625 47.46875 
Q 42.71875 47.46875 48.578125 41.0625 
Q 54.4375 34.671875 54.4375 24.078125 
Q 54.4375 12.984375 47.671875 5.859375 
Q 40.921875 -1.265625 30.421875 -1.265625 
Q 18.890625 -1.265625 12.328125 7.734375 
Q 5.765625 16.75 5.765625 33.296875 
Q 5.765625 53.328125 14.375 65.109375 
Q 23 76.90625 37.0625 76.90625 
Q 45.125 76.90625 49.703125 74.703125 
z
M 16.109375 24.75 
Q 16.109375 17.28125 20.09375 11.953125 
Q 24.078125 6.640625 30.671875 6.640625 
Q 36.921875 6.640625 40.828125 11.234375 
Q 44.734375 15.828125 44.734375 23.046875 
Q 44.734375 30.859375 41.046875 35.203125 
Q 37.359375 39.546875 30.5625 39.546875 
Q 24.125 39.546875 20.109375 35.15625 
Q 16.109375 30.765625 16.109375 24.75 
z
" id="MicrosoftYaHei-36"/>
      </defs>
      <g transform="translate(36.464062 80.722015)scale(0.1 -0.1)">
       <use xlink:href="#MicrosoftYaHei-36"/>
       <use x="58.642578" xlink:href="#MicrosoftYaHei-2e"/>
       <use x="82.714844" xlink:href="#MicrosoftYaHei-30"/>
      </g>
     </g>
    </g>
   </g>
   <g id="line2d_7">
    <path clip-path="url(#p0c8db5dc8e)" d="M 64.978512 121.392527 
L 65.561794 113.850876 
L 66.145076 102.557817 
L 66.728357 94.728792 
L 67.311639 88.919158 
L 67.89492 106.410195 
L 68.478202 89.245367 
L 69.061484 81.462943 
L 70.228047 102.441314 
L 70.811329 97.43167 
L 71.39461 85.571628 
L 71.977892 83.886213 
L 72.561173 84.530865 
L 73.144455 78.208616 
L 73.727737 75.560106 
L 74.311018 81.525078 
L 74.8943 94.449184 
L 75.477581 90.16186 
L 76.060863 96.522944 
L 77.227426 64.181611 
L 77.810708 62.729203 
L 78.393989 57.66519 
L 78.977271 54.66717 
L 79.560553 56.826366 
L 80.143834 55.987542 
L 80.727116 56.438021 
L 81.310398 66.659249 
L 81.893679 67.863117 
L 82.476961 72.764025 
L 83.060242 62.768037 
L 83.643524 60.236031 
L 84.226806 62.931142 
L 84.810087 60.072926 
L 85.97665 75.055258 
L 86.559932 70.744634 
L 87.143214 89.004593 
L 87.726495 93.082211 
L 88.309777 104.887885 
L 88.893059 101.625791 
L 89.47634 135.093322 
L 90.059622 129.594363 
L 90.642903 131.45065 
L 91.226185 136.359325 
L 91.809467 121.773105 
L 92.392748 126.774982 
L 92.97603 129.920573 
L 93.559311 120.732341 
L 94.142593 118.052764 
L 94.725875 131.769093 
L 95.309156 133.322471 
L 95.892438 125.982759 
L 96.475719 128.67787 
L 97.059001 137.112714 
L 97.642283 139.52045 
L 98.225564 129.314755 
L 98.808846 129.905039 
L 99.392128 129.749701 
L 99.975409 132.328309 
L 100.558691 133.438974 
L 101.725254 142.906814 
L 102.308536 143.497098 
L 102.891817 152.00961 
L 103.475099 148.056262 
L 104.05838 133.237035 
L 104.641662 136.281656 
L 105.224944 134.930217 
L 105.808225 143.000017 
L 106.391507 142.401966 
L 106.974788 142.860213 
L 107.55807 137.438923 
L 108.141352 129.089516 
L 108.724633 123.411919 
L 109.307915 123.178912 
L 109.891197 127.334198 
L 110.474478 128.095354 
L 111.05776 124.351712 
L 111.641041 128.87981 
L 112.224323 128.895343 
L 112.807605 116.336281 
L 113.390886 117.695487 
L 113.974168 121.307091 
L 114.557449 122.580861 
L 115.140731 120.848845 
L 115.724013 135.233126 
L 116.307294 134.371001 
L 116.890576 137.384555 
L 117.473858 137.32242 
L 118.057139 135.644771 
L 118.640421 130.27785 
L 119.223702 129.640965 
L 119.806984 129.866205 
L 120.390266 136.817572 
L 120.973547 133.928288 
L 121.556829 142.29323 
L 122.723392 134.246731 
L 123.306674 132.677819 
L 123.889955 132.095302 
L 124.473237 132.196272 
L 125.056518 129.943874 
L 125.6398 131.528319 
L 126.223082 134.316633 
L 127.389645 144.16505 
L 127.972927 152.762998 
L 128.556208 154.720254 
L 129.13949 152.265917 
L 129.722771 156.933818 
L 130.306053 149.865948 
L 130.889335 152.017376 
L 132.055898 147.815489 
L 132.639179 146.386381 
L 133.222461 133.563245 
L 133.805743 133.74965 
L 134.389024 132.957427 
L 134.972306 132.530248 
L 135.555587 132.499181 
L 136.138869 135.27196 
L 136.722151 128.483698 
L 137.305432 129.073982 
L 137.888714 128.623502 
L 138.471996 132.670052 
L 139.055277 122.340088 
L 139.638559 119.443038 
L 140.805122 111.280036 
L 141.388404 109.998499 
L 141.971685 100.887936 
L 142.554967 102.355878 
L 143.138248 104.639344 
L 143.72153 102.480149 
L 144.304812 101.983068 
L 144.888093 111.210134 
L 145.471375 111.140232 
L 146.054657 107.008246 
L 146.637938 105.913114 
L 147.22122 108.724729 
L 147.804501 107.893671 
L 148.387783 115.691629 
L 148.971065 125.43131 
L 149.554346 122.542027 
L 150.137628 127.95555 
L 150.720909 127.97885 
L 151.304191 124.553651 
L 151.887473 119.264399 
L 152.470754 118.402274 
L 153.054036 112.095559 
L 153.637317 117.944028 
L 154.220599 119.893517 
L 154.803881 120.677973 
L 155.387162 126.441006 
L 155.970444 127.341965 
L 156.553726 122.712898 
L 157.137007 125.897324 
L 157.720289 126.588577 
L 158.30357 123.45852 
L 158.886852 115.955704 
L 159.470134 122.30902 
L 160.053415 127.365266 
L 160.636697 129.897272 
L 161.219978 126.13033 
L 161.80326 124.03327 
L 162.386542 120.887679 
L 162.969823 125.190537 
L 163.553105 122.394456 
L 164.136387 123.901233 
L 164.719668 133.322471 
L 165.30295 132.972961 
L 165.886231 133.508876 
L 166.469513 130.440955 
L 167.052795 134.005957 
L 167.636076 131.994333 
L 168.219358 125.035199 
L 168.802639 127.435168 
L 169.385921 127.520604 
L 169.969203 131.062306 
L 170.552484 131.248711 
L 171.135766 132.786555 
L 171.719047 131.000171 
L 172.302329 132.204039 
L 172.885611 131.730258 
L 173.468892 130.8526 
L 174.052174 129.073982 
L 174.635456 129.470093 
L 175.802019 121.897375 
L 176.3853 120.592537 
L 176.968582 118.441109 
L 177.551864 120.142058 
L 178.135145 121.105152 
L 178.718427 115.784832 
L 179.301708 108.111144 
L 179.88499 102.045203 
L 180.468272 102.146172 
L 181.051553 101.555889 
L 181.634835 106.262624 
L 182.218116 114.860572 
L 182.801398 108.429587 
L 183.38468 106.744171 
L 183.967961 103.69955 
L 184.551243 106.915043 
L 185.134525 101.586956 
L 185.717806 99.427761 
L 186.301088 91.117188 
L 186.884369 89.874485 
L 187.467651 85.400756 
L 188.050933 79.886264 
L 188.634214 86.21628 
L 189.217496 80.119271 
L 189.800777 81.486243 
L 190.384059 74.884386 
L 190.967341 76.220292 
L 191.550622 77.276589 
L 192.133904 77.494062 
L 192.717186 78.954237 
L 193.300467 72.45335 
L 193.883749 77.843572 
L 194.46703 73.494113 
L 195.050312 90.340499 
L 195.633594 129.990475 
L 196.216875 122.557561 
L 196.800157 111.955755 
L 197.383438 98.534568 
L 197.96672 94.868596 
L 198.550002 89.796816 
L 199.133283 91.924944 
L 199.716565 83.715341 
L 200.299846 87.552185 
L 200.883128 86.907533 
L 201.46641 72.165975 
L 202.049691 66.729151 
L 202.632973 71.435887 
L 203.216255 62.791338 
L 204.382818 49.556556 
L 204.966099 46.970182 
L 205.549381 59.793318 
L 206.132663 59.016629 
L 206.715944 84.445429 
L 207.299226 67.15633 
L 207.882507 62.822405 
L 208.465789 62.364159 
L 209.049071 55.125417 
L 209.632352 58.278774 
L 210.215634 78.309585 
L 210.798915 65.649554 
L 211.965479 80.958095 
L 212.54876 83.971648 
L 212.54876 83.971648 
" style="fill:none;stroke:#1f77b4;stroke-linecap:square;stroke-width:1.5;"/>
   </g>
   <g id="patch_3">
    <path d="M 57.6 162.432 
L 57.6 41.472 
" style="fill:none;stroke:#000000;stroke-linecap:square;stroke-linejoin:miter;stroke-width:0.8;"/>
   </g>
   <g id="patch_4">
    <path d="M 219.927273 162.432 
L 219.927273 41.472 
" style="fill:none;stroke:#000000;stroke-linecap:square;stroke-linejoin:miter;stroke-width:0.8;"/>
   </g>
   <g id="patch_5">
    <path d="M 57.6 162.432 
L 219.927273 162.432 
" style="fill:none;stroke:#000000;stroke-linecap:square;stroke-linejoin:miter;stroke-width:0.8;"/>
   </g>
   <g id="patch_6">
    <path d="M 57.6 41.472 
L 219.927273 41.472 
" style="fill:none;stroke:#000000;stroke-linecap:square;stroke-linejoin:miter;stroke-width:0.8;"/>
   </g>
   <g id="text_7">
    <!-- 基金净值 -->
    <defs>
     <path d="M 98.734375 10.890625 
Q 95.515625 6.890625 93.453125 3.859375 
Q 84.46875 8.109375 76.953125 14.015625 
L 76.953125 8.640625 
L 53.609375 8.640625 
L 53.609375 -1.515625 
L 91.796875 -1.515625 
L 91.796875 -7.859375 
L 8.109375 -7.859375 
L 8.109375 -1.515625 
L 46.296875 -1.515625 
L 46.296875 8.640625 
L 22.65625 8.640625 
L 22.65625 13.96875 
Q 14.890625 7.46875 6.453125 2.6875 
Q 4.59375 5.328125 1.375 8.84375 
Q 16.40625 16.15625 27.390625 27.390625 
L 2.4375 27.390625 
L 2.4375 33.734375 
L 21.875 33.734375 
L 21.875 66.453125 
L 5.46875 66.453125 
L 5.46875 72.796875 
L 21.875 72.796875 
L 21.875 83.34375 
L 29.203125 83.34375 
L 29.203125 72.796875 
L 71.09375 72.796875 
L 71.09375 83.34375 
L 78.421875 83.34375 
L 78.421875 72.796875 
L 94.828125 72.796875 
L 94.828125 66.453125 
L 78.421875 66.453125 
L 78.421875 33.734375 
L 97.5625 33.734375 
L 97.5625 27.390625 
L 71.875 27.390625 
Q 82.859375 16.453125 98.734375 10.890625 
z
M 46.296875 24.265625 
L 53.609375 24.265625 
L 53.609375 14.796875 
L 75.984375 14.796875 
Q 69 20.40625 63.234375 27.390625 
L 36.328125 27.390625 
Q 30.21875 20.453125 23.640625 14.796875 
L 46.296875 14.796875 
z
M 29.203125 33.734375 
L 71.09375 33.734375 
L 71.09375 40.671875 
L 29.203125 40.671875 
z
M 29.203125 46.734375 
L 71.09375 46.734375 
L 71.09375 53.5625 
L 29.203125 53.5625 
z
M 29.203125 59.625 
L 71.09375 59.625 
L 71.09375 66.453125 
L 29.203125 66.453125 
z
" id="MicrosoftYaHei-57fa"/>
     <path d="M 4.6875 -2.203125 
L 46.09375 -2.203125 
L 46.09375 21.625 
L 11.140625 21.625 
L 11.140625 28.765625 
L 46.09375 28.765625 
L 46.09375 42.4375 
L 20.703125 42.4375 
L 20.703125 49.265625 
Q 13.765625 44.875 5.671875 40.484375 
Q 3.609375 44.1875 0.78125 47.796875 
Q 33.296875 63.03125 46.78125 82.765625 
L 57.421875 82.765625 
L 55.171875 80.03125 
Q 70.703125 60.203125 99.125 49.171875 
Q 96.484375 45.453125 93.953125 41.359375 
Q 86.328125 44.578125 79.203125 49.078125 
L 79.203125 42.4375 
L 53.90625 42.4375 
L 53.90625 28.765625 
L 88.671875 28.765625 
L 88.671875 21.625 
L 53.90625 21.625 
L 53.90625 -2.203125 
L 95.515625 -2.203125 
L 95.515625 -9.421875 
L 4.6875 -9.421875 
z
M 50.09375 74.46875 
Q 40.046875 61.765625 21.09375 49.5625 
L 78.421875 49.5625 
Q 63.1875 59.234375 50.09375 74.46875 
z
M 63.96875 4.4375 
Q 71.875 12.640625 77.34375 20.453125 
L 84.1875 16.0625 
Q 77.34375 7.5625 69.828125 -0.25 
z
M 15.625 15.671875 
L 21.390625 20.265625 
Q 28.515625 13.03125 35.359375 5.21875 
L 28.71875 -0.046875 
Q 22.859375 7.671875 15.625 15.671875 
z
" id="MicrosoftYaHei-91d1"/>
     <path d="M 31.453125 19.96875 
L 55.859375 19.96875 
L 55.859375 30.421875 
L 26.65625 30.421875 
L 26.65625 37.453125 
L 55.859375 37.453125 
L 55.859375 47.796875 
L 33.203125 47.796875 
L 33.203125 51.515625 
Q 31.390625 49.65625 29.59375 47.90625 
Q 27.9375 49.65625 24.3125 53.375 
Q 36.71875 65.09375 47.65625 83.640625 
L 55.078125 81.6875 
Q 53.125 78.125 51.03125 74.75 
L 80.375 74.75 
L 80.375 68.21875 
L 69.046875 54.640625 
L 89.0625 54.640625 
L 89.0625 37.453125 
L 97.953125 37.453125 
L 97.953125 30.421875 
L 89.0625 30.421875 
L 89.0625 9.125 
L 81.640625 9.125 
L 81.640625 13.140625 
L 63.484375 13.140625 
L 63.484375 0.046875 
Q 63.484375 -11.96875 51.171875 -12.0625 
Q 44.734375 -12.0625 38.875 -12.0625 
Q 38.1875 -7.859375 37.3125 -3.953125 
Q 43.453125 -4.640625 49.421875 -4.640625 
Q 55.859375 -4.640625 55.859375 1.8125 
L 55.859375 13.140625 
L 31.453125 13.140625 
z
M 70.90625 68.015625 
L 46.625 68.015625 
Q 41.703125 60.890625 36.078125 54.640625 
L 60.109375 54.640625 
z
M 14.453125 36.46875 
Q 17.96875 34.71875 21.78125 33.15625 
Q 16.609375 15.484375 11.140625 -3.765625 
L 3.21875 -0.734375 
Q 9.96875 18.109375 14.453125 36.46875 
z
M 63.484375 19.96875 
L 81.640625 19.96875 
L 81.640625 30.421875 
L 63.484375 30.421875 
z
M 10.359375 76.421875 
Q 16.609375 65.671875 21.96875 54.828125 
Q 17.96875 52.6875 14.65625 51.125 
Q 9.671875 62.359375 4 73.09375 
z
M 81.640625 47.796875 
L 63.484375 47.796875 
L 63.484375 37.453125 
L 81.640625 37.453125 
z
" id="MicrosoftYaHei-51c0"/>
     <path d="M 25.296875 -3.375 
L 35.15625 -3.375 
L 35.15625 57.078125 
L 58.203125 57.078125 
L 58.203125 65.96875 
L 29.890625 65.96875 
L 29.890625 72.609375 
L 58.203125 72.609375 
L 58.203125 82.953125 
L 65.625 82.953125 
L 65.625 72.609375 
L 96.390625 72.609375 
L 96.390625 65.96875 
L 65.625 65.96875 
L 65.625 57.078125 
L 89.265625 57.078125 
L 89.265625 -3.375 
L 98.53125 -3.375 
L 98.53125 -10.015625 
L 25.296875 -10.015625 
z
M 1.078125 35.109375 
Q 14.15625 54.640625 21.390625 82.46875 
L 28.609375 80.328125 
Q 24.703125 67.71875 20.125 56.6875 
L 20.125 -12.75 
L 12.984375 -12.75 
L 12.984375 41.65625 
Q 8.796875 33.84375 4.109375 27.09375 
Q 2.734375 31.203125 1.078125 35.109375 
z
M 42.390625 -3.375 
L 82.03125 -3.375 
L 82.03125 5.515625 
L 42.390625 5.515625 
z
M 82.03125 50.640625 
L 42.390625 50.640625 
L 42.390625 41.84375 
L 82.03125 41.84375 
z
M 42.390625 26.8125 
L 82.03125 26.8125 
L 82.03125 35.59375 
L 42.390625 35.59375 
z
M 42.390625 11.765625 
L 82.03125 11.765625 
L 82.03125 20.5625 
L 42.390625 20.5625 
z
" id="MicrosoftYaHei-503c"/>
    </defs>
    <g transform="translate(114.763636 35.472)scale(0.12 -0.12)">
     <use xlink:href="#MicrosoftYaHei-57fa"/>
     <use x="100" xlink:href="#MicrosoftYaHei-91d1"/>
     <use x="200" xlink:href="#MicrosoftYaHei-51c0"/>
     <use x="300" xlink:href="#MicrosoftYaHei-503c"/>
    </g>
   </g>
  </g>
  <g id="axes_2">
   <g id="patch_7">
    <path d="M 252.392727 162.432 
L 414.72 162.432 
L 414.72 41.472 
L 252.392727 41.472 
z
" style="fill:#ffffff;"/>
   </g>
   <g id="matplotlib.axis_3">
    <g id="xtick_4">
     <g id="line2d_8">
      <g>
       <use style="stroke:#000000;stroke-width:0.8;" x="259.77124" xlink:href="#mde492d3ac6" y="162.432"/>
      </g>
     </g>
     <g id="text_8">
      <!-- 0 -->
      <g transform="translate(256.839208 177.42575)scale(0.1 -0.1)">
       <use xlink:href="#MicrosoftYaHei-30"/>
      </g>
     </g>
    </g>
    <g id="xtick_5">
     <g id="line2d_9">
      <g>
       <use style="stroke:#000000;stroke-width:0.8;" x="318.099401" xlink:href="#mde492d3ac6" y="162.432"/>
      </g>
     </g>
     <g id="text_9">
      <!-- 100 -->
      <g transform="translate(309.303307 177.42575)scale(0.1 -0.1)">
       <use xlink:href="#MicrosoftYaHei-31"/>
       <use x="58.642578" xlink:href="#MicrosoftYaHei-30"/>
       <use x="117.285156" xlink:href="#MicrosoftYaHei-30"/>
      </g>
     </g>
    </g>
    <g id="xtick_6">
     <g id="line2d_10">
      <g>
       <use style="stroke:#000000;stroke-width:0.8;" x="376.427562" xlink:href="#mde492d3ac6" y="162.432"/>
      </g>
     </g>
     <g id="text_10">
      <!-- 200 -->
      <g transform="translate(367.631468 177.42575)scale(0.1 -0.1)">
       <use xlink:href="#MicrosoftYaHei-32"/>
       <use x="58.642578" xlink:href="#MicrosoftYaHei-30"/>
       <use x="117.285156" xlink:href="#MicrosoftYaHei-30"/>
      </g>
     </g>
    </g>
   </g>
   <g id="matplotlib.axis_4">
    <g id="ytick_4">
     <g id="line2d_11">
      <g>
       <use style="stroke:#000000;stroke-width:0.8;" x="252.392727" xlink:href="#m61eea95b62" y="158.184974"/>
      </g>
     </g>
     <g id="text_11">
      <!-- −2000 -->
      <defs>
       <path d="M 62.0625 27.6875 
L 12.3125 27.6875 
L 12.3125 35.15625 
L 62.0625 35.15625 
z
" id="MicrosoftYaHei-2212"/>
      </defs>
      <g transform="translate(214.51929 162.181849)scale(0.1 -0.1)">
       <use xlink:href="#MicrosoftYaHei-2212"/>
       <use x="74.169922" xlink:href="#MicrosoftYaHei-32"/>
       <use x="132.8125" xlink:href="#MicrosoftYaHei-30"/>
       <use x="191.455078" xlink:href="#MicrosoftYaHei-30"/>
       <use x="250.097656" xlink:href="#MicrosoftYaHei-30"/>
      </g>
     </g>
    </g>
    <g id="ytick_5">
     <g id="line2d_12">
      <g>
       <use style="stroke:#000000;stroke-width:0.8;" x="252.392727" xlink:href="#m61eea95b62" y="128.655532"/>
      </g>
     </g>
     <g id="text_12">
      <!-- 0 -->
      <g transform="translate(239.528665 132.652407)scale(0.1 -0.1)">
       <use xlink:href="#MicrosoftYaHei-30"/>
      </g>
     </g>
    </g>
    <g id="ytick_6">
     <g id="line2d_13">
      <g>
       <use style="stroke:#000000;stroke-width:0.8;" x="252.392727" xlink:href="#m61eea95b62" y="99.12609"/>
      </g>
     </g>
     <g id="text_13">
      <!-- 2000 -->
      <g transform="translate(221.936477 103.122965)scale(0.1 -0.1)">
       <use xlink:href="#MicrosoftYaHei-32"/>
       <use x="58.642578" xlink:href="#MicrosoftYaHei-30"/>
       <use x="117.285156" xlink:href="#MicrosoftYaHei-30"/>
       <use x="175.927734" xlink:href="#MicrosoftYaHei-30"/>
      </g>
     </g>
    </g>
    <g id="ytick_7">
     <g id="line2d_14">
      <g>
       <use style="stroke:#000000;stroke-width:0.8;" x="252.392727" xlink:href="#m61eea95b62" y="69.596648"/>
      </g>
     </g>
     <g id="text_14">
      <!-- 4000 -->
      <defs>
       <path d="M 55.078125 19.625 
L 45.40625 19.625 
L 45.40625 0 
L 36.140625 0 
L 36.140625 19.625 
L 0.875 19.625 
L 0.875 25.828125 
L 34.328125 75.640625 
L 45.40625 75.640625 
L 45.40625 27.203125 
L 55.078125 27.203125 
z
M 36.140625 27.203125 
L 36.140625 58.890625 
Q 36.140625 62.25 36.328125 66.65625 
L 36.140625 66.65625 
Q 35.453125 64.796875 33.25 60.84375 
L 10.75 27.203125 
z
" id="MicrosoftYaHei-34"/>
      </defs>
      <g transform="translate(221.936477 73.593523)scale(0.1 -0.1)">
       <use xlink:href="#MicrosoftYaHei-34"/>
       <use x="58.642578" xlink:href="#MicrosoftYaHei-30"/>
       <use x="117.285156" xlink:href="#MicrosoftYaHei-30"/>
       <use x="175.927734" xlink:href="#MicrosoftYaHei-30"/>
      </g>
     </g>
    </g>
   </g>
   <g id="line2d_15">
    <path clip-path="url(#p599b5c73e0)" d="M 259.77124 128.655532 
L 260.354521 126.012803 
L 260.937803 122.055512 
L 261.521085 119.312081 
L 262.104366 117.276281 
L 262.687648 123.405454 
L 263.270929 117.390591 
L 263.854211 114.66349 
L 265.020774 122.014687 
L 265.604056 120.259218 
L 266.187337 116.103247 
L 266.770619 115.512647 
L 267.353901 115.738545 
L 267.937182 113.523115 
L 268.520464 112.59503 
L 269.103745 114.685263 
L 269.687027 119.214102 
L 270.270309 117.711746 
L 270.85359 119.940784 
L 272.020154 108.607801 
L 272.603435 108.098851 
L 273.186717 106.324331 
L 273.769998 105.273771 
L 274.35328 106.030392 
L 274.936562 105.736452 
L 275.519843 105.894309 
L 276.103125 109.47601 
L 276.686406 109.897867 
L 277.269688 111.615233 
L 277.85297 108.11246 
L 278.436251 107.225199 
L 279.019533 108.169614 
L 279.602814 107.168044 
L 280.769378 112.418122 
L 281.352659 110.907602 
L 281.935941 117.306219 
L 282.519223 118.73509 
L 283.102504 122.87201 
L 283.685786 121.728913 
L 284.269067 133.456536 
L 284.852349 130.932094 
L 285.435631 131.784271 
L 286.018912 134.037729 
L 286.602194 127.341537 
L 287.185475 129.637782 
L 287.768757 131.081849 
L 288.352039 126.863747 
L 288.93532 125.633616 
L 289.518602 131.930461 
L 290.101884 132.64358 
L 290.685165 129.274091 
L 291.268447 130.511353 
L 291.851728 134.383592 
L 292.43501 135.488927 
L 293.018292 130.430028 
L 293.601573 130.722628 
L 294.184855 130.645628 
L 294.768136 131.923828 
L 295.351418 132.474378 
L 296.517981 137.167526 
L 297.101263 137.481924 
L 297.684544 142.015867 
L 298.267826 139.611456 
L 298.851108 130.598456 
L 299.434389 132.450184 
L 300.017671 131.628243 
L 300.600953 136.536266 
L 301.184234 136.172534 
L 301.767516 136.451237 
L 302.350797 133.154029 
L 302.934079 128.07595 
L 303.517361 124.622856 
L 304.100642 124.481143 
L 304.683924 127.008373 
L 305.267205 127.471304 
L 305.850487 125.194436 
L 306.433769 127.948408 
L 307.01705 127.957855 
L 307.600332 120.31948 
L 308.183613 121.146144 
L 308.766895 123.342708 
L 309.350177 124.11741 
L 309.933458 123.064004 
L 310.51674 131.812471 
L 311.100022 131.28813 
L 311.683303 133.120962 
L 312.266585 133.083172 
L 312.849866 132.062833 
L 313.433148 128.798691 
L 314.01643 128.41134 
L 314.599711 128.54833 
L 315.182993 132.776125 
L 315.766274 131.018874 
L 316.349556 136.106401 
L 317.516119 131.21255 
L 318.099401 130.258343 
L 318.682683 129.904059 
L 319.265964 129.965468 
L 319.849246 128.595568 
L 320.432527 129.559222 
L 321.015809 131.255064 
L 322.182372 137.244835 
L 322.765654 142.474075 
L 323.348935 143.664471 
L 323.932217 142.078361 
L 324.515499 145.094983 
L 325.09878 140.256899 
L 325.682062 141.72959 
L 326.848625 138.853323 
L 327.431907 137.875073 
L 328.015188 129.097407 
L 328.59847 129.225005 
L 329.181752 128.682714 
L 329.765033 128.390303 
L 330.348315 128.369036 
L 330.931596 130.267054 
L 331.514878 125.620367 
L 332.09816 126.024427 
L 332.681441 125.716065 
L 333.264723 128.486001 
L 333.848004 121.414956 
L 334.431286 119.431873 
L 335.597849 113.844152 
L 336.181131 112.966918 
L 336.764413 106.730575 
L 337.347694 107.735407 
L 337.930976 109.29848 
L 338.514257 107.820473 
L 339.097539 107.480212 
L 339.680821 113.796303 
L 340.264102 113.748454 
L 340.847384 110.920036 
L 341.430665 110.170399 
L 342.013947 112.094999 
L 342.597229 111.526126 
L 343.18051 116.863967 
L 343.763792 123.530953 
L 344.347073 121.553187 
L 344.930355 125.25884 
L 345.513637 125.27479 
L 346.096918 122.93018 
L 346.6802 119.309592 
L 347.263482 118.719452 
L 347.846763 114.402393 
L 348.430045 118.405774 
L 349.013326 119.740235 
L 349.596608 120.277209 
L 350.17989 124.222108 
L 350.763171 124.83883 
L 351.346453 121.670151 
L 351.929734 123.849947 
L 352.513016 124.323123 
L 353.096298 122.180543 
L 353.679579 117.044731 
L 354.262861 121.393689 
L 354.846142 124.85478 
L 355.429424 126.587984 
L 356.012706 124.009445 
L 356.595987 122.573969 
L 357.179269 120.420756 
L 357.762551 123.366139 
L 358.345832 121.452172 
L 358.929114 122.483587 
L 359.512395 128.932593 
L 360.095677 128.693347 
L 360.678959 129.060191 
L 361.26224 126.960144 
L 361.845522 129.400452 
L 362.428803 128.023459 
L 363.012085 123.259807 
L 363.595367 124.902629 
L 364.178648 124.961112 
L 364.76193 127.38547 
L 365.345212 127.513068 
L 365.928493 128.56575 
L 366.511775 127.342937 
L 367.095056 128.167007 
L 367.678338 127.842695 
L 368.26162 127.241922 
L 368.844901 126.024427 
L 369.428183 126.295572 
L 370.594746 121.111911 
L 371.178028 120.218726 
L 371.761309 118.746035 
L 372.344591 119.910365 
L 372.927872 120.56962 
L 373.511154 116.927766 
L 374.094436 111.67499 
L 374.677717 107.522744 
L 375.260999 107.59186 
L 375.844281 107.1878 
L 376.427562 110.409645 
L 377.010844 116.295094 
L 377.594125 111.892969 
L 378.177407 110.739272 
L 378.760689 108.655175 
L 379.34397 110.856237 
L 379.927252 107.209066 
L 380.510533 105.731058 
L 381.093815 100.042323 
L 381.677097 99.191671 
L 382.260378 96.129323 
L 382.84366 92.354555 
L 383.426941 96.687564 
L 384.010223 92.514052 
L 384.593505 93.449769 
L 385.176786 88.93068 
L 386.34335 90.568185 
L 386.926631 90.71705 
L 387.509913 91.716566 
L 388.093194 87.266592 
L 388.676476 90.956295 
L 389.259758 87.979013 
L 389.843039 99.510665 
L 390.426321 126.651783 
L 391.009602 121.56382 
L 391.592884 114.306694 
L 392.176166 105.119652 
L 392.759447 102.610229 
L 393.342729 99.138505 
L 393.926011 100.595247 
L 394.509292 94.975626 
L 395.092574 97.602015 
L 395.675855 97.160739 
L 396.259137 87.069879 
L 396.842419 83.348276 
L 397.4257 86.570121 
L 398.008982 80.652772 
L 399.175545 71.593328 
L 399.758827 69.822908 
L 400.342108 78.600574 
L 400.92539 78.068917 
L 401.508671 95.475385 
L 402.091953 83.640688 
L 402.675235 80.674039 
L 403.258516 80.360361 
L 403.841798 75.405312 
L 404.42508 77.563842 
L 405.008361 91.27529 
L 405.591643 82.609272 
L 406.758206 93.088242 
L 407.341488 95.151073 
L 407.341488 95.151073 
" style="fill:none;stroke:#ff0000;stroke-linecap:square;stroke-width:1.5;"/>
   </g>
   <g id="line2d_16">
    <path clip-path="url(#p599b5c73e0)" d="M 259.77124 128.655532 
L 260.354521 126.012803 
L 260.937803 122.016635 
L 261.521085 119.219992 
L 262.104366 117.125559 
L 262.687648 123.488165 
L 263.270929 117.186138 
L 263.854211 114.303502 
L 265.020774 122.175578 
L 265.604056 120.270748 
L 266.187337 115.721848 
L 266.770619 115.069967 
L 267.353901 115.321379 
L 267.937182 112.835357 
L 268.520464 111.785497 
L 269.103745 114.168842 
L 269.687027 119.37413 
L 270.270309 117.633255 
L 270.85359 120.236936 
L 271.436872 114.128593 
L 272.020154 106.835996 
L 272.603435 106.227566 
L 273.186717 104.09062 
L 273.769998 102.81637 
L 274.35328 103.740626 
L 274.936562 103.379014 
L 275.519843 103.574579 
L 276.103125 108.042928 
L 276.686406 108.572949 
L 277.269688 110.745885 
L 277.85297 106.282519 
L 278.436251 105.14415 
L 279.019533 106.364097 
L 279.602814 105.061525 
L 280.769378 111.959337 
L 281.352659 109.954678 
L 281.935941 118.503603 
L 282.519223 120.425926 
L 283.102504 126.030272 
L 283.685786 124.470703 
L 284.269067 140.583164 
L 284.852349 137.915852 
L 285.435631 138.822892 
L 286.018912 141.239046 
L 286.602194 134.006404 
L 287.185475 136.504151 
L 287.768757 138.086104 
L 288.352039 133.432376 
L 288.93532 132.065828 
L 289.518602 139.108657 
L 290.101884 139.91184 
L 290.685165 136.090331 
L 291.268447 137.503121 
L 291.851728 141.954784 
L 292.43501 143.234281 
L 293.018292 137.773495 
L 293.601573 138.091448 
L 294.184855 138.007221 
L 294.768136 139.414613 
L 295.351418 140.024804 
L 296.517981 145.277951 
L 297.101263 145.608712 
L 297.684544 150.410111 
L 298.267826 148.165326 
L 298.851108 139.69525 
L 299.434389 141.446411 
L 300.017671 140.664201 
L 300.600953 145.364201 
L 301.184234 145.013676 
L 301.767516 145.28395 
L 302.350797 142.066456 
L 302.934079 137.080729 
L 303.517361 133.67017 
L 304.100642 133.529381 
L 304.683924 136.054735 
L 305.267205 136.520029 
L 305.850487 134.218214 
L 306.433769 137.018339 
L 307.01705 137.028 
L 307.600332 129.172002 
L 308.183613 130.026925 
L 308.766895 132.311122 
L 309.350177 133.121194 
L 309.933458 132.013607 
L 310.51674 141.262381 
L 311.100022 140.70493 
L 311.683303 142.664393 
L 312.266585 142.623765 
L 312.849866 141.52071 
L 313.433148 137.972489 
L 314.01643 137.549147 
L 314.599711 137.699671 
L 315.182993 142.37 
L 315.766274 140.418304 
L 316.349556 146.09899 
L 317.516119 140.589804 
L 318.099401 139.507162 
L 318.682683 139.103093 
L 319.265964 139.173495 
L 319.849246 137.594897 
L 320.432527 138.711026 
L 321.015809 140.685206 
L 322.182372 147.71122 
L 322.765654 153.893137 
L 323.348935 155.307813 
L 323.932217 153.524515 
L 324.515499 156.933818 
L 325.09878 151.744597 
L 325.682062 153.332259 
L 326.848625 150.208127 
L 327.431907 149.137394 
L 328.015188 139.482125 
L 328.59847 139.623153 
L 329.181752 139.020925 
L 329.765033 138.694655 
L 330.348315 138.670814 
L 330.931596 140.808563 
L 331.514878 135.550373 
L 332.09816 136.009711 
L 332.681441 135.657555 
L 333.264723 138.835308 
L 333.848004 130.686002 
L 334.431286 128.390346 
L 335.597849 121.879544 
L 336.181131 120.850757 
L 336.764413 113.505931 
L 337.347694 114.694273 
L 337.930976 116.550462 
L 338.514257 114.788014 
L 339.097539 114.380603 
L 339.680821 121.974072 
L 340.264102 121.916306 
L 340.847384 118.487591 
L 341.430665 117.575142 
L 342.013947 119.927245 
L 342.597229 119.229183 
L 343.18051 125.805701 
L 343.763792 134.053473 
L 344.347073 131.596543 
L 344.930355 136.219006 
L 345.513637 136.238985 
L 346.096918 133.289913 
L 346.6802 128.71723 
L 347.263482 127.968897 
L 347.846763 122.47266 
L 348.430045 127.589592 
L 349.013326 129.302011 
L 349.596608 129.993812 
L 350.17989 135.096308 
L 350.763171 135.897198 
L 351.346453 131.765826 
L 351.929734 134.619071 
L 352.513016 135.240882 
L 353.096298 132.414159 
L 353.679579 125.61202 
L 354.262861 131.393989 
L 354.846142 136.013288 
L 355.429424 138.335486 
L 356.012706 134.867211 
L 356.595987 132.928986 
L 357.179269 130.010557 
L 357.762551 134.01774 
L 358.345832 131.403907 
L 358.929114 132.817765 
L 359.512395 141.691232 
L 360.095677 141.360783 
L 360.678959 141.869403 
L 361.26224 138.94667 
L 361.845522 142.355726 
L 362.428803 140.424831 
L 363.012085 133.719961 
L 363.595367 136.040726 
L 364.178648 136.123646 
L 364.76193 139.57365 
L 365.345212 139.755898 
L 365.928493 141.26496 
L 366.511775 139.505575 
L 367.095056 140.695564 
L 367.678338 140.225542 
L 368.26162 139.351693 
L 368.844901 137.574418 
L 369.428183 137.971644 
L 370.594746 130.338059 
L 371.178028 129.015693 
L 371.761309 126.82784 
L 372.344591 128.563506 
L 372.927872 129.549622 
L 373.511154 124.083493 
L 374.094436 116.172964 
L 374.677717 109.899195 
L 375.260999 110.003962 
L 375.844281 109.389499 
L 376.427562 114.304787 
L 377.010844 123.312789 
L 377.594125 116.552905 
L 378.177407 114.775563 
L 378.760689 111.554571 
L 379.34397 114.967147 
L 379.927252 109.294442 
L 380.510533 106.988364 
L 381.093815 98.084775 
L 381.677097 96.749334 
L 382.260378 91.927162 
L 382.84366 85.965362 
L 383.426941 92.829029 
L 384.010223 86.198294 
L 384.593505 87.689293 
L 385.176786 80.467313 
L 385.760068 81.932918 
L 386.34335 83.095111 
L 386.926631 83.335076 
L 387.509913 84.950903 
L 388.093194 77.736339 
L 388.676476 83.73523 
L 389.259758 78.880813 
L 389.843039 97.736018 
L 390.426321 142.243393 
L 391.009602 133.873306 
L 391.592884 121.897527 
L 392.176166 106.690981 
L 392.759447 102.525155 
L 393.342729 96.745122 
L 393.926011 99.177372 
L 394.509292 89.767682 
L 395.092574 94.17774 
L 395.675855 93.434688 
L 396.259137 76.395213 
L 396.842419 70.093838 
L 397.4257 75.563628 
L 398.008982 65.490547 
L 399.175545 50.007511 
L 399.758827 46.970182 
L 400.342108 62.067319 
L 400.92539 61.150521 
L 401.508671 91.244115 
L 402.091953 70.727712 
L 402.675235 65.571332 
L 403.258516 65.024713 
L 403.841798 56.367745 
L 404.42508 60.148462 
L 405.008361 84.225442 
L 405.591643 68.96787 
L 406.758206 87.490362 
L 407.341488 91.150655 
L 407.341488 91.150655 
" style="fill:none;stroke:#008000;stroke-linecap:square;stroke-width:1.5;"/>
   </g>
   <g id="patch_8">
    <path d="M 252.392727 162.432 
L 252.392727 41.472 
" style="fill:none;stroke:#000000;stroke-linecap:square;stroke-linejoin:miter;stroke-width:0.8;"/>
   </g>
   <g id="patch_9">
    <path d="M 414.72 162.432 
L 414.72 41.472 
" style="fill:none;stroke:#000000;stroke-linecap:square;stroke-linejoin:miter;stroke-width:0.8;"/>
   </g>
   <g id="patch_10">
    <path d="M 252.392727 162.432 
L 414.72 162.432 
" style="fill:none;stroke:#000000;stroke-linecap:square;stroke-linejoin:miter;stroke-width:0.8;"/>
   </g>
   <g id="patch_11">
    <path d="M 252.392727 41.472 
L 414.72 41.472 
" style="fill:none;stroke:#000000;stroke-linecap:square;stroke-linejoin:miter;stroke-width:0.8;"/>
   </g>
   <g id="text_15">
    <!-- 收益 -->
    <defs>
     <path d="M 35.0625 41.546875 
Q 47.5625 63.234375 53.125 83.453125 
L 61.03125 81.203125 
Q 57.90625 72.171875 54.5 63.921875 
L 97.078125 63.921875 
L 97.078125 56.6875 
L 85.59375 56.6875 
Q 84.125 28.421875 71.09375 10.640625 
Q 81 1.859375 99.21875 -4.640625 
Q 96.1875 -8.453125 93.65625 -12.453125 
Q 76.265625 -5.03125 65.921875 4.6875 
Q 56.5 -4.59375 39.84375 -13.328125 
Q 37.796875 -10.109375 34.859375 -6.78125 
Q 51.515625 1.5625 60.59375 10.5 
Q 49.3125 24.609375 46 45.5625 
Q 43.265625 40.234375 40.328125 35.296875 
Q 38.484375 38.140625 35.0625 41.546875 
z
M 26.265625 82.671875 
L 33.6875 82.671875 
L 33.6875 -12.75 
L 26.265625 -12.75 
L 26.265625 17.390625 
Q 20.3125 14.0625 14.15625 10.015625 
Q 11.625 8.15625 9.1875 5.609375 
L 3.609375 12.15625 
Q 6.640625 15.375 6.640625 20.5625 
L 6.640625 69 
L 14.0625 69 
L 14.0625 19 
Q 19.875 22.078125 26.265625 25.53125 
z
M 77.875 56.6875 
L 51.90625 56.6875 
Q 53.328125 32.859375 65.671875 16.546875 
Q 76.8125 32.234375 77.875 56.6875 
z
" id="MicrosoftYaHei-6536"/>
     <path d="M 1.765625 -1.609375 
L 15.921875 -1.609375 
L 15.921875 31.203125 
L 84.46875 31.203125 
L 84.46875 -1.609375 
L 97.953125 -1.609375 
L 97.953125 -8.453125 
L 1.765625 -8.453125 
z
M 4.109375 64.3125 
L 57.375 64.3125 
Q 66.015625 72.65625 74.125 83.34375 
L 81.25 78.859375 
Q 74.609375 71.140625 67.671875 64.3125 
L 96.484375 64.3125 
L 96.484375 57.46875 
L 4.109375 57.46875 
z
M 77.4375 24.5625 
L 63.765625 24.5625 
L 63.765625 -1.609375 
L 77.4375 -1.609375 
z
M 22.953125 -1.609375 
L 36.53125 -1.609375 
L 36.53125 24.5625 
L 22.953125 24.5625 
z
M 43.359375 -1.609375 
L 56.9375 -1.609375 
L 56.9375 24.5625 
L 43.359375 24.5625 
z
M 36.53125 54.4375 
L 41.3125 48.09375 
Q 26.078125 38.8125 7.125 29.25 
Q 5.171875 33.0625 3.125 36.078125 
Q 21.390625 44.875 36.53125 54.4375 
z
M 59.28125 48.296875 
L 63.28125 54.25 
Q 82.8125 45.0625 97.078125 37.25 
L 92.78125 30.03125 
Q 73.53125 41.15625 59.28125 48.296875 
z
M 19.34375 78.375 
L 24.421875 83.453125 
Q 32.8125 77.390625 39.546875 71.625 
L 33.984375 65.765625 
Q 27.640625 71.828125 19.34375 78.375 
z
" id="MicrosoftYaHei-76ca"/>
    </defs>
    <g transform="translate(321.556364 35.472)scale(0.12 -0.12)">
     <use xlink:href="#MicrosoftYaHei-6536"/>
     <use x="100" xlink:href="#MicrosoftYaHei-76ca"/>
    </g>
   </g>
   <g id="legend_1">
    <g id="patch_12">
     <path d="M 259.392727 80.431375 
L 311.392727 80.431375 
Q 313.392727 80.431375 313.392727 78.431375 
L 313.392727 48.472 
Q 313.392727 46.472 311.392727 46.472 
L 259.392727 46.472 
Q 257.392727 46.472 257.392727 48.472 
L 257.392727 78.431375 
Q 257.392727 80.431375 259.392727 80.431375 
z
" style="fill:#ffffff;opacity:0.8;stroke:#cccccc;stroke-linejoin:miter;"/>
    </g>
    <g id="line2d_17">
     <path d="M 261.392727 54.96575 
L 281.392727 54.96575 
" style="fill:none;stroke:#ff0000;stroke-linecap:square;stroke-width:1.5;"/>
    </g>
    <g id="line2d_18"/>
    <g id="text_16">
     <!-- 网格 -->
     <defs>
      <path d="M 16.796875 56.890625 
L 22.5625 59.90625 
Q 28.375 50.6875 34.125 41.0625 
Q 38.875 51.265625 42.28125 61.375 
L 48.921875 58.9375 
Q 44.09375 45.796875 38.28125 33.984375 
Q 43.890625 24.421875 49.421875 14.40625 
L 42.78125 10.890625 
Q 38.71875 18.609375 34.421875 26.421875 
Q 28.421875 15.140625 21.484375 5.125 
L 15.625 8.5 
L 15.625 -11.859375 
L 8.296875 -11.859375 
L 8.296875 77.390625 
L 91.5 77.390625 
L 91.5 -0.921875 
Q 91.5 -11.375 80.28125 -11.375 
Q 74.03125 -11.375 65.328125 -11.1875 
Q 64.84375 -8.0625 63.96875 -3.5625 
Q 72.171875 -4.25 77.9375 -4.25 
Q 84.1875 -4.25 84.1875 1.125 
L 84.1875 70.359375 
L 15.625 70.359375 
L 15.625 8.9375 
Q 24.03125 21.296875 30.421875 33.59375 
Q 23.921875 45.171875 16.796875 56.890625 
z
M 49.3125 52.203125 
L 54.984375 55.515625 
Q 59.859375 47.609375 65.09375 38.765625 
Q 70.703125 49.953125 74.609375 60.796875 
L 81.25 58.25 
Q 75.734375 44.34375 69.1875 31.6875 
Q 75.34375 21.140625 81.9375 9.328125 
L 75.390625 5.609375 
Q 70.515625 14.890625 65.234375 24.359375 
Q 59.1875 13.53125 52.34375 3.765625 
L 46.390625 7.5625 
Q 54.78125 19.734375 61.234375 31.5 
Q 55.515625 41.75 49.3125 52.203125 
z
" id="MicrosoftYaHei-7f51"/>
      <path d="M 35.15625 51.21875 
Q 47.859375 67.328125 53.71875 83.453125 
L 61.03125 81 
Q 59.1875 76.609375 56.9375 72.3125 
L 92.28125 72.3125 
L 92.28125 65.375 
Q 85.640625 53.859375 73.921875 43.890625 
Q 85.15625 37.640625 98.640625 35.109375 
Q 96.390625 30.421875 95.40625 26.609375 
Q 80.671875 31.109375 67.390625 39.109375 
Q 54.390625 30.8125 36.03125 23.875 
Q 34.46875 27.484375 32.71875 30.71875 
Q 48.25 35.6875 61.234375 44 
Q 53.90625 50.828125 49.421875 59.234375 
Q 45.125 52.59375 40.046875 46.046875 
Q 38.1875 48.1875 35.15625 51.21875 
z
M 42.390625 24.359375 
L 90.625 24.359375 
L 90.625 -13.625 
L 83.109375 -13.625 
L 83.109375 -8.734375 
L 49.90625 -8.734375 
L 49.90625 -13.625 
L 42.390625 -13.625 
z
M 1.375 21.53125 
Q 11.8125 37.84375 16.015625 56.890625 
L 2.046875 56.890625 
L 2.046875 63.71875 
L 16.109375 63.71875 
L 16.109375 82.765625 
L 23.4375 82.765625 
L 23.4375 63.71875 
L 35.9375 63.71875 
L 35.9375 56.890625 
L 23.4375 56.890625 
L 23.4375 46.140625 
L 26.171875 48.78125 
Q 31.453125 43.703125 37.796875 37.25 
L 32.71875 32.46875 
Q 27.546875 38.53125 23.4375 42.921875 
L 23.4375 -13.53125 
L 16.109375 -13.53125 
L 16.109375 38.328125 
Q 11.140625 22.21875 4.5 12.9375 
Q 3.21875 17.140625 1.375 21.53125 
z
M 83.109375 17.328125 
L 49.90625 17.328125 
L 49.90625 -1.703125 
L 83.109375 -1.703125 
z
M 83.40625 65.671875 
L 53.328125 65.671875 
Q 58.984375 54.546875 67.1875 48.09375 
Q 77.15625 55.71875 83.40625 65.671875 
z
" id="MicrosoftYaHei-683c"/>
     </defs>
     <g transform="translate(289.392727 58.46575)scale(0.1 -0.1)">
      <use xlink:href="#MicrosoftYaHei-7f51"/>
      <use x="100" xlink:href="#MicrosoftYaHei-683c"/>
     </g>
    </g>
    <g id="line2d_19">
     <path d="M 261.392727 70.445437 
L 281.392727 70.445437 
" style="fill:none;stroke:#008000;stroke-linecap:square;stroke-width:1.5;"/>
    </g>
    <g id="line2d_20"/>
    <g id="text_17">
     <!-- 定投 -->
     <defs>
      <path d="M 1.265625 -6 
Q 17.484375 7.953125 20.015625 35.015625 
L 28.21875 33.734375 
Q 27.046875 24.703125 24.65625 16.890625 
Q 32.234375 0.78125 48.140625 -1.609375 
L 48.140625 41.359375 
L 3.515625 41.359375 
L 3.515625 48.6875 
L 96.296875 48.6875 
L 96.296875 41.359375 
L 56.25 41.359375 
L 56.25 25.53125 
L 90.234375 25.53125 
L 90.234375 18.3125 
L 56.25 18.3125 
L 56.25 -2.15625 
Q 75.6875 -2.640625 98.53125 -1.8125 
Q 96.875 -5.609375 95.703125 -9.90625 
Q 71.78125 -10.203125 53.90625 -9.625 
Q 31.890625 -9.625 21.53125 8.25 
Q 15.96875 -4.6875 6.453125 -13.625 
Q 4.203125 -9.8125 1.265625 -6 
z
M 7.03125 71.34375 
L 48.6875 71.34375 
Q 45.796875 75.53125 42.578125 79.546875 
L 50 83.546875 
Q 53.8125 79.15625 58.296875 73.6875 
L 53.90625 71.34375 
L 93.453125 71.34375 
L 93.453125 52.78125 
L 85.75 52.78125 
L 85.75 64.015625 
L 14.75 64.015625 
L 14.75 52.875 
L 7.03125 52.875 
z
" id="MicrosoftYaHei-5b9a"/>
      <path d="M 38.28125 31.203125 
L 38.28125 38.03125 
L 88.484375 38.03125 
L 88.484375 31.296875 
Q 81.84375 15.828125 69.78125 5.28125 
Q 81.453125 -2.046875 99.125 -4.9375 
Q 96.390625 -8.546875 94.234375 -12.359375 
Q 75.984375 -8.34375 63.765625 0.59375 
Q 50.59375 -8.640625 32.125 -13.140625 
Q 29.984375 -9.125 27.828125 -6.296875 
Q 45.5625 -2.59375 58.015625 5.46875 
Q 47.265625 15.765625 42.671875 31.203125 
z
M 1.46875 30.71875 
Q 8.296875 32.5625 15.71875 34.859375 
L 15.71875 56.390625 
L 2.734375 56.390625 
L 2.734375 63.234375 
L 15.71875 63.234375 
L 15.71875 82.171875 
L 23.046875 82.171875 
L 23.046875 63.234375 
L 34.859375 63.234375 
L 34.859375 56.390625 
L 23.046875 56.390625 
L 23.046875 37.15625 
Q 28.078125 38.765625 33.40625 40.578125 
Q 33.296875 37.453125 33.59375 32.953125 
Q 28.265625 31.296875 23.046875 29.59375 
L 23.046875 -1.125 
Q 23.046875 -11.765625 13.578125 -11.765625 
L 4.109375 -11.765625 
Q 3.71875 -8.34375 2.828125 -3.46875 
Q 8.296875 -4.046875 11.71875 -4.046875 
Q 15.71875 -4.046875 15.71875 0.640625 
L 15.71875 27.203125 
Q 9.03125 24.953125 2.4375 22.609375 
z
M 87.796875 52.59375 
L 98.734375 52.59375 
Q 97.75 49.078125 97.078125 45.453125 
L 86.71875 45.453125 
Q 75.484375 45.453125 75.484375 56.203125 
L 75.484375 71.53125 
L 53.8125 71.53125 
L 53.8125 67.921875 
Q 53.90625 49.078125 38.875 39.796875 
Q 36.421875 43.015625 33.59375 45.75 
Q 46.484375 52.78125 46.484375 67.921875 
L 46.484375 78.375 
L 82.8125 78.375 
L 82.8125 57.28125 
Q 82.8125 52.59375 87.796875 52.59375 
z
M 80.375 31.203125 
L 49.75 31.203125 
Q 53.859375 18.21875 63.8125 9.671875 
Q 74.515625 18.40625 80.375 31.203125 
z
" id="MicrosoftYaHei-6295"/>
     </defs>
     <g transform="translate(289.392727 73.945437)scale(0.1 -0.1)">
      <use xlink:href="#MicrosoftYaHei-5b9a"/>
      <use x="100" xlink:href="#MicrosoftYaHei-6295"/>
     </g>
    </g>
   </g>
  </g>
  <g id="axes_3">
   <g id="patch_13">
    <path d="M 57.6 307.584 
L 219.927273 307.584 
L 219.927273 186.624 
L 57.6 186.624 
z
" style="fill:#ffffff;"/>
   </g>
   <g id="matplotlib.axis_5">
    <g id="xtick_7">
     <g id="line2d_21">
      <g>
       <use style="stroke:#000000;stroke-width:0.8;" x="64.978512" xlink:href="#mde492d3ac6" y="307.584"/>
      </g>
     </g>
     <g id="text_18">
      <!-- 0 -->
      <g transform="translate(62.046481 322.57775)scale(0.1 -0.1)">
       <use xlink:href="#MicrosoftYaHei-30"/>
      </g>
     </g>
    </g>
    <g id="xtick_8">
     <g id="line2d_22">
      <g>
       <use style="stroke:#000000;stroke-width:0.8;" x="123.306674" xlink:href="#mde492d3ac6" y="307.584"/>
      </g>
     </g>
     <g id="text_19">
      <!-- 100 -->
      <g transform="translate(114.51058 322.57775)scale(0.1 -0.1)">
       <use xlink:href="#MicrosoftYaHei-31"/>
       <use x="58.642578" xlink:href="#MicrosoftYaHei-30"/>
       <use x="117.285156" xlink:href="#MicrosoftYaHei-30"/>
      </g>
     </g>
    </g>
    <g id="xtick_9">
     <g id="line2d_23">
      <g>
       <use style="stroke:#000000;stroke-width:0.8;" x="181.634835" xlink:href="#mde492d3ac6" y="307.584"/>
      </g>
     </g>
     <g id="text_20">
      <!-- 200 -->
      <g transform="translate(172.838741 322.57775)scale(0.1 -0.1)">
       <use xlink:href="#MicrosoftYaHei-32"/>
       <use x="58.642578" xlink:href="#MicrosoftYaHei-30"/>
       <use x="117.285156" xlink:href="#MicrosoftYaHei-30"/>
      </g>
     </g>
    </g>
   </g>
   <g id="matplotlib.axis_6">
    <g id="ytick_8">
     <g id="line2d_24">
      <g>
       <use style="stroke:#000000;stroke-width:0.8;" x="57.6" xlink:href="#m61eea95b62" y="302.085818"/>
      </g>
     </g>
     <g id="text_21">
      <!-- 10000 -->
      <g transform="translate(21.279688 306.082693)scale(0.1 -0.1)">
       <use xlink:href="#MicrosoftYaHei-31"/>
       <use x="58.642578" xlink:href="#MicrosoftYaHei-30"/>
       <use x="117.285156" xlink:href="#MicrosoftYaHei-30"/>
       <use x="175.927734" xlink:href="#MicrosoftYaHei-30"/>
       <use x="234.570312" xlink:href="#MicrosoftYaHei-30"/>
      </g>
     </g>
    </g>
    <g id="ytick_9">
     <g id="line2d_25">
      <g>
       <use style="stroke:#000000;stroke-width:0.8;" x="57.6" xlink:href="#m61eea95b62" y="280.353874"/>
      </g>
     </g>
     <g id="text_22">
      <!-- 15000 -->
      <g transform="translate(21.279688 284.350749)scale(0.1 -0.1)">
       <use xlink:href="#MicrosoftYaHei-31"/>
       <use x="58.642578" xlink:href="#MicrosoftYaHei-35"/>
       <use x="117.285156" xlink:href="#MicrosoftYaHei-30"/>
       <use x="175.927734" xlink:href="#MicrosoftYaHei-30"/>
       <use x="234.570312" xlink:href="#MicrosoftYaHei-30"/>
      </g>
     </g>
    </g>
    <g id="ytick_10">
     <g id="line2d_26">
      <g>
       <use style="stroke:#000000;stroke-width:0.8;" x="57.6" xlink:href="#m61eea95b62" y="258.62193"/>
      </g>
     </g>
     <g id="text_23">
      <!-- 20000 -->
      <g transform="translate(21.279688 262.618805)scale(0.1 -0.1)">
       <use xlink:href="#MicrosoftYaHei-32"/>
       <use x="58.642578" xlink:href="#MicrosoftYaHei-30"/>
       <use x="117.285156" xlink:href="#MicrosoftYaHei-30"/>
       <use x="175.927734" xlink:href="#MicrosoftYaHei-30"/>
       <use x="234.570312" xlink:href="#MicrosoftYaHei-30"/>
      </g>
     </g>
    </g>
    <g id="ytick_11">
     <g id="line2d_27">
      <g>
       <use style="stroke:#000000;stroke-width:0.8;" x="57.6" xlink:href="#m61eea95b62" y="236.889986"/>
      </g>
     </g>
     <g id="text_24">
      <!-- 25000 -->
      <g transform="translate(21.279688 240.886861)scale(0.1 -0.1)">
       <use xlink:href="#MicrosoftYaHei-32"/>
       <use x="58.642578" xlink:href="#MicrosoftYaHei-35"/>
       <use x="117.285156" xlink:href="#MicrosoftYaHei-30"/>
       <use x="175.927734" xlink:href="#MicrosoftYaHei-30"/>
       <use x="234.570312" xlink:href="#MicrosoftYaHei-30"/>
      </g>
     </g>
    </g>
    <g id="ytick_12">
     <g id="line2d_28">
      <g>
       <use style="stroke:#000000;stroke-width:0.8;" x="57.6" xlink:href="#m61eea95b62" y="215.158042"/>
      </g>
     </g>
     <g id="text_25">
      <!-- 30000 -->
      <defs>
       <path d="M 6.984375 12.640625 
Q 14.75 6.640625 24.515625 6.640625 
Q 32.328125 6.640625 36.890625 10.46875 
Q 41.453125 14.3125 41.453125 20.75 
Q 41.453125 35.109375 20.90625 35.109375 
L 14.59375 35.109375 
L 14.59375 43.015625 
L 20.609375 43.015625 
Q 38.8125 43.015625 38.8125 56.5 
Q 38.8125 68.953125 24.90625 68.953125 
Q 16.9375 68.953125 9.90625 63.578125 
L 9.90625 72.609375 
Q 17.328125 76.90625 27.25 76.90625 
Q 36.921875 76.90625 42.78125 71.84375 
Q 48.640625 66.796875 48.640625 58.734375 
Q 48.640625 43.890625 33.5 39.65625 
L 33.5 39.453125 
Q 41.703125 38.578125 46.453125 33.671875 
Q 51.21875 28.765625 51.21875 21.4375 
Q 51.21875 11.234375 43.875 4.984375 
Q 36.53125 -1.265625 24.3125 -1.265625 
Q 13.578125 -1.265625 6.984375 2.734375 
z
" id="MicrosoftYaHei-33"/>
      </defs>
      <g transform="translate(21.279688 219.154917)scale(0.1 -0.1)">
       <use xlink:href="#MicrosoftYaHei-33"/>
       <use x="58.642578" xlink:href="#MicrosoftYaHei-30"/>
       <use x="117.285156" xlink:href="#MicrosoftYaHei-30"/>
       <use x="175.927734" xlink:href="#MicrosoftYaHei-30"/>
       <use x="234.570312" xlink:href="#MicrosoftYaHei-30"/>
      </g>
     </g>
    </g>
    <g id="ytick_13">
     <g id="line2d_29">
      <g>
       <use style="stroke:#000000;stroke-width:0.8;" x="57.6" xlink:href="#m61eea95b62" y="193.426098"/>
      </g>
     </g>
     <g id="text_26">
      <!-- 35000 -->
      <g transform="translate(21.279688 197.422973)scale(0.1 -0.1)">
       <use xlink:href="#MicrosoftYaHei-33"/>
       <use x="58.642578" xlink:href="#MicrosoftYaHei-35"/>
       <use x="117.285156" xlink:href="#MicrosoftYaHei-30"/>
       <use x="175.927734" xlink:href="#MicrosoftYaHei-30"/>
       <use x="234.570312" xlink:href="#MicrosoftYaHei-30"/>
      </g>
     </g>
    </g>
   </g>
   <g id="line2d_30">
    <path clip-path="url(#p6172c5c3d3)" d="M 64.978512 302.085818 
L 88.893059 302.085818 
L 89.47634 289.046652 
L 97.059001 289.046652 
L 97.642283 284.700263 
L 101.141972 284.700263 
L 101.725254 280.353874 
L 102.308536 280.353874 
L 102.891817 271.661097 
L 127.972927 271.661097 
L 128.556208 267.314708 
L 129.13949 267.314708 
L 129.722771 262.968319 
L 212.54876 262.968319 
L 212.54876 262.968319 
" style="fill:none;stroke:#ff0000;stroke-linecap:square;stroke-width:1.5;"/>
   </g>
   <g id="line2d_31">
    <path clip-path="url(#p6172c5c3d3)" d="M 64.978512 302.085818 
L 212.54876 192.122182 
L 212.54876 192.122182 
" style="fill:none;stroke:#008000;stroke-linecap:square;stroke-width:1.5;"/>
   </g>
   <g id="patch_14">
    <path d="M 57.6 307.584 
L 57.6 186.624 
" style="fill:none;stroke:#000000;stroke-linecap:square;stroke-linejoin:miter;stroke-width:0.8;"/>
   </g>
   <g id="patch_15">
    <path d="M 219.927273 307.584 
L 219.927273 186.624 
" style="fill:none;stroke:#000000;stroke-linecap:square;stroke-linejoin:miter;stroke-width:0.8;"/>
   </g>
   <g id="patch_16">
    <path d="M 57.6 307.584 
L 219.927273 307.584 
" style="fill:none;stroke:#000000;stroke-linecap:square;stroke-linejoin:miter;stroke-width:0.8;"/>
   </g>
   <g id="patch_17">
    <path d="M 57.6 186.624 
L 219.927273 186.624 
" style="fill:none;stroke:#000000;stroke-linecap:square;stroke-linejoin:miter;stroke-width:0.8;"/>
   </g>
   <g id="text_27">
    <!-- 投入 -->
    <defs>
     <path d="M 28.609375 77.296875 
L 35.0625 81.890625 
Q 46 75.140625 59.078125 47.3125 
Q 77.34375 7.375 98.734375 -1.421875 
L 91.890625 -10.015625 
Q 70.515625 2.6875 52.34375 43.5 
Q 50.875 46.78125 49.46875 49.75 
Q 38.140625 10.9375 7.328125 -10.59375 
Q 4.6875 -6.6875 1.375 -3.265625 
Q 33.0625 16.703125 44.046875 59.90625 
Q 36.375 72.703125 28.609375 77.296875 
z
" id="MicrosoftYaHei-5165"/>
    </defs>
    <g transform="translate(126.763636 180.624)scale(0.12 -0.12)">
     <use xlink:href="#MicrosoftYaHei-6295"/>
     <use x="100" xlink:href="#MicrosoftYaHei-5165"/>
    </g>
   </g>
   <g id="legend_2">
    <g id="patch_18">
     <path d="M 64.6 225.583375 
L 116.6 225.583375 
Q 118.6 225.583375 118.6 223.583375 
L 118.6 193.624 
Q 118.6 191.624 116.6 191.624 
L 64.6 191.624 
Q 62.6 191.624 62.6 193.624 
L 62.6 223.583375 
Q 62.6 225.583375 64.6 225.583375 
z
" style="fill:#ffffff;opacity:0.8;stroke:#cccccc;stroke-linejoin:miter;"/>
    </g>
    <g id="line2d_32">
     <path d="M 66.6 200.11775 
L 86.6 200.11775 
" style="fill:none;stroke:#ff0000;stroke-linecap:square;stroke-width:1.5;"/>
    </g>
    <g id="line2d_33"/>
    <g id="text_28">
     <!-- 网格 -->
     <g transform="translate(94.6 203.61775)scale(0.1 -0.1)">
      <use xlink:href="#MicrosoftYaHei-7f51"/>
      <use x="100" xlink:href="#MicrosoftYaHei-683c"/>
     </g>
    </g>
    <g id="line2d_34">
     <path d="M 66.6 215.597437 
L 86.6 215.597437 
" style="fill:none;stroke:#008000;stroke-linecap:square;stroke-width:1.5;"/>
    </g>
    <g id="line2d_35"/>
    <g id="text_29">
     <!-- 定投 -->
     <g transform="translate(94.6 219.097437)scale(0.1 -0.1)">
      <use xlink:href="#MicrosoftYaHei-5b9a"/>
      <use x="100" xlink:href="#MicrosoftYaHei-6295"/>
     </g>
    </g>
   </g>
  </g>
  <g id="axes_4">
   <g id="patch_19">
    <path d="M 252.392727 307.584 
L 414.72 307.584 
L 414.72 186.624 
L 252.392727 186.624 
z
" style="fill:#ffffff;"/>
   </g>
   <g id="matplotlib.axis_7">
    <g id="xtick_10">
     <g id="line2d_36">
      <g>
       <use style="stroke:#000000;stroke-width:0.8;" x="259.77124" xlink:href="#mde492d3ac6" y="307.584"/>
      </g>
     </g>
     <g id="text_30">
      <!-- 0 -->
      <g transform="translate(256.839208 322.57775)scale(0.1 -0.1)">
       <use xlink:href="#MicrosoftYaHei-30"/>
      </g>
     </g>
    </g>
    <g id="xtick_11">
     <g id="line2d_37">
      <g>
       <use style="stroke:#000000;stroke-width:0.8;" x="318.099401" xlink:href="#mde492d3ac6" y="307.584"/>
      </g>
     </g>
     <g id="text_31">
      <!-- 100 -->
      <g transform="translate(309.303307 322.57775)scale(0.1 -0.1)">
       <use xlink:href="#MicrosoftYaHei-31"/>
       <use x="58.642578" xlink:href="#MicrosoftYaHei-30"/>
       <use x="117.285156" xlink:href="#MicrosoftYaHei-30"/>
      </g>
     </g>
    </g>
    <g id="xtick_12">
     <g id="line2d_38">
      <g>
       <use style="stroke:#000000;stroke-width:0.8;" x="376.427562" xlink:href="#mde492d3ac6" y="307.584"/>
      </g>
     </g>
     <g id="text_32">
      <!-- 200 -->
      <g transform="translate(367.631468 322.57775)scale(0.1 -0.1)">
       <use xlink:href="#MicrosoftYaHei-32"/>
       <use x="58.642578" xlink:href="#MicrosoftYaHei-30"/>
       <use x="117.285156" xlink:href="#MicrosoftYaHei-30"/>
      </g>
     </g>
    </g>
   </g>
   <g id="matplotlib.axis_8">
    <g id="ytick_14">
     <g id="line2d_39">
      <g>
       <use style="stroke:#000000;stroke-width:0.8;" x="252.392727" xlink:href="#m61eea95b62" y="305.463278"/>
      </g>
     </g>
     <g id="text_33">
      <!-- −0.1 -->
      <g transform="translate(223.839602 309.460153)scale(0.1 -0.1)">
       <use xlink:href="#MicrosoftYaHei-2212"/>
       <use x="74.169922" xlink:href="#MicrosoftYaHei-30"/>
       <use x="132.8125" xlink:href="#MicrosoftYaHei-2e"/>
       <use x="156.884766" xlink:href="#MicrosoftYaHei-31"/>
      </g>
     </g>
    </g>
    <g id="ytick_15">
     <g id="line2d_40">
      <g>
       <use style="stroke:#000000;stroke-width:0.8;" x="252.392727" xlink:href="#m61eea95b62" y="268.868554"/>
      </g>
     </g>
     <g id="text_34">
      <!-- 0.0 -->
      <g transform="translate(231.25679 272.865429)scale(0.1 -0.1)">
       <use xlink:href="#MicrosoftYaHei-30"/>
       <use x="58.642578" xlink:href="#MicrosoftYaHei-2e"/>
       <use x="82.714844" xlink:href="#MicrosoftYaHei-30"/>
      </g>
     </g>
    </g>
    <g id="ytick_16">
     <g id="line2d_41">
      <g>
       <use style="stroke:#000000;stroke-width:0.8;" x="252.392727" xlink:href="#m61eea95b62" y="232.273829"/>
      </g>
     </g>
     <g id="text_35">
      <!-- 0.1 -->
      <g transform="translate(231.25679 236.270704)scale(0.1 -0.1)">
       <use xlink:href="#MicrosoftYaHei-30"/>
       <use x="58.642578" xlink:href="#MicrosoftYaHei-2e"/>
       <use x="82.714844" xlink:href="#MicrosoftYaHei-31"/>
      </g>
     </g>
    </g>
    <g id="ytick_17">
     <g id="line2d_42">
      <g>
       <use style="stroke:#000000;stroke-width:0.8;" x="252.392727" xlink:href="#m61eea95b62" y="195.679105"/>
      </g>
     </g>
     <g id="text_36">
      <!-- 0.2 -->
      <g transform="translate(231.25679 199.67598)scale(0.1 -0.1)">
       <use xlink:href="#MicrosoftYaHei-30"/>
       <use x="58.642578" xlink:href="#MicrosoftYaHei-2e"/>
       <use x="82.714844" xlink:href="#MicrosoftYaHei-32"/>
      </g>
     </g>
    </g>
   </g>
   <g id="line2d_43">
    <path clip-path="url(#p4decee759c)" d="M 259.77124 268.868554 
L 260.354521 262.318483 
L 260.937803 252.510242 
L 261.521085 245.71058 
L 262.104366 240.6648 
L 262.687648 255.856107 
L 263.270929 240.948119 
L 263.854211 234.188932 
L 265.020774 252.409056 
L 265.604056 248.058083 
L 266.187337 237.757405 
L 266.770619 236.293589 
L 267.353901 236.853482 
L 267.937182 231.362486 
L 268.520464 229.062204 
L 269.103745 234.242898 
L 269.687027 245.467735 
L 270.270309 241.744111 
L 270.85359 247.268836 
L 272.020154 219.179759 
L 272.603435 217.918314 
L 273.186717 213.520121 
L 273.769998 210.916282 
L 274.35328 212.791586 
L 274.936562 212.06305 
L 275.519843 212.454301 
L 276.103125 221.331636 
L 276.686406 222.377219 
L 277.269688 226.633753 
L 277.85297 217.952043 
L 278.436251 215.752946 
L 279.019533 218.093702 
L 279.602814 215.611286 
L 280.769378 228.623733 
L 281.352659 224.879872 
L 281.935941 240.739003 
L 282.519223 244.280493 
L 283.102504 254.53395 
L 283.685786 251.700758 
L 284.269067 278.021944 
L 284.852349 273.208949 
L 285.435631 274.833674 
L 286.018912 279.13002 
L 286.602194 266.363347 
L 287.185475 270.741269 
L 287.768757 273.494465 
L 288.352039 265.452413 
L 288.93532 263.107097 
L 289.518602 275.112393 
L 290.101884 276.471996 
L 290.685165 270.047871 
L 291.268447 272.406783 
L 291.851728 279.789428 
L 292.43501 280.966223 
L 293.018292 272.010076 
L 293.601573 272.528088 
L 294.184855 272.391769 
L 294.768136 274.654662 
L 295.351418 275.629341 
L 295.9347 279.746169 
L 296.517981 282.933345 
L 297.101263 283.45284 
L 297.684544 288.34733 
L 298.267826 284.841805 
L 298.851108 271.701251 
L 299.434389 274.400987 
L 300.017671 273.202635 
L 300.600953 280.358314 
L 301.184234 279.828009 
L 301.767516 280.234346 
L 302.350797 275.427163 
L 302.934079 268.023549 
L 303.517361 262.989091 
L 304.100642 262.782479 
L 304.683924 266.467068 
L 305.267205 267.142002 
L 305.850487 263.822428 
L 306.433769 267.837598 
L 307.01705 267.851372 
L 307.600332 256.714959 
L 308.183613 257.920198 
L 308.766895 261.122692 
L 309.350177 262.252173 
L 309.933458 260.716354 
L 310.51674 273.471231 
L 311.100022 272.706765 
L 311.683303 275.378953 
L 312.266585 275.323856 
L 312.849866 273.836247 
L 313.433148 269.077272 
L 314.01643 268.512532 
L 314.599711 268.712257 
L 315.182993 274.876196 
L 315.766274 272.314201 
L 316.349556 279.731589 
L 317.516119 272.596572 
L 318.099401 271.205381 
L 318.682683 270.68885 
L 319.265964 270.778382 
L 319.849246 268.781128 
L 320.432527 270.186093 
L 321.015809 272.658555 
L 322.182372 281.391376 
L 322.765654 289.015377 
L 323.348935 289.535235 
L 323.932217 287.351227 
L 324.515499 290.313597 
L 325.09878 284.002382 
L 325.682062 285.923488 
L 326.848625 282.171436 
L 327.431907 280.895322 
L 328.015188 269.444974 
L 328.59847 269.611423 
L 329.181752 268.904012 
L 329.765033 268.522565 
L 330.348315 268.494824 
L 330.931596 270.970762 
L 331.514878 264.909221 
L 332.09816 265.436312 
L 332.681441 265.034058 
L 333.264723 268.647403 
L 333.848004 259.423319 
L 334.431286 256.836414 
L 335.597849 249.547307 
L 336.181131 248.402965 
L 336.764413 240.267739 
L 337.347694 241.57853 
L 337.930976 243.617538 
L 338.514257 241.689497 
L 339.097539 241.245631 
L 339.680821 249.484888 
L 340.264102 249.422469 
L 340.847384 245.732836 
L 341.430665 244.754944 
L 342.013947 247.26556 
L 342.597229 246.523472 
L 343.18051 253.486615 
L 343.763792 262.183608 
L 344.347073 259.603639 
L 344.930355 264.437614 
L 345.513637 264.45842 
L 346.096918 261.399908 
L 346.6802 256.6769 
L 347.263482 255.90707 
L 347.846763 250.275524 
L 348.430045 255.497881 
L 349.013326 257.238667 
L 349.596608 257.939143 
L 350.17989 263.085211 
L 350.763171 263.889717 
L 351.346453 259.756218 
L 351.929734 262.599732 
L 352.513016 263.216983 
L 353.096298 260.422016 
L 353.679579 253.722418 
L 354.262861 259.395577 
L 354.846142 263.910523 
L 355.429424 266.171464 
L 356.012706 262.807794 
L 356.595987 260.935236 
L 357.179269 258.126398 
L 357.762551 261.968611 
L 358.345832 259.471866 
L 358.929114 260.817334 
L 359.512395 269.229976 
L 360.095677 268.917883 
L 360.678959 269.396426 
L 361.26224 266.656942 
L 361.845522 269.840292 
L 362.428803 268.044023 
L 363.012085 261.829903 
L 363.595367 263.972942 
L 364.178648 264.049231 
L 364.76193 267.211774 
L 365.345212 267.378224 
L 365.928493 268.751434 
L 366.511775 267.156291 
L 367.095056 268.231278 
L 367.678338 267.808219 
L 368.26162 267.024519 
L 368.844901 265.436312 
L 369.428183 265.790017 
L 370.594746 259.028001 
L 371.178028 257.862853 
L 371.761309 255.941747 
L 372.344591 257.4606 
L 372.927872 258.32059 
L 373.511154 253.56984 
L 374.094436 246.717663 
L 374.677717 241.301114 
L 375.260999 241.391274 
L 375.844281 240.864184 
L 376.427562 245.067037 
L 377.010844 252.744527 
L 377.594125 247.002014 
L 378.177407 245.497032 
L 378.760689 242.778355 
L 379.34397 245.649611 
L 379.927252 240.891926 
L 380.510533 238.963884 
L 381.093815 231.543004 
L 381.677097 230.43334 
L 382.260378 226.438549 
L 382.84366 221.514414 
L 383.426941 227.166766 
L 384.010223 221.722476 
L 384.593505 222.943106 
L 385.176786 217.048015 
L 386.34335 219.184119 
L 386.926631 219.37831 
L 387.509913 220.682165 
L 388.093194 214.877234 
L 388.676476 219.690403 
L 389.259758 215.806578 
L 389.843039 230.849464 
L 390.426321 266.254689 
L 391.009602 259.61751 
L 391.592884 250.150687 
L 392.176166 238.166313 
L 392.759447 234.892803 
L 393.342729 230.363986 
L 393.926011 232.264286 
L 394.509292 224.933567 
L 395.092574 228.359655 
L 395.675855 227.784017 
L 396.259137 214.620624 
L 396.842419 209.765843 
L 397.4257 213.968697 
L 398.008982 206.249595 
L 399.175545 194.431671 
L 399.758827 192.122182 
L 400.342108 203.57253 
L 400.92539 202.87899 
L 401.508671 225.585494 
L 402.091953 210.14729 
L 402.675235 206.277336 
L 403.258516 205.868148 
L 403.841798 199.404353 
L 404.42508 202.220126 
L 405.008361 220.106527 
L 405.591643 208.801823 
L 406.758206 222.471499 
L 407.341488 225.162435 
L 407.341488 225.162435 
" style="fill:none;stroke:#ff0000;stroke-linecap:square;stroke-width:1.5;"/>
   </g>
   <g id="line2d_44">
    <path clip-path="url(#p4decee759c)" d="M 259.77124 268.868554 
L 260.354521 262.383335 
L 260.937803 252.736525 
L 261.521085 246.163487 
L 262.104366 241.390358 
L 262.687648 256.670985 
L 263.270929 242.050464 
L 263.854211 235.623824 
L 265.020774 254.133943 
L 265.604056 249.975922 
L 266.187337 239.988866 
L 266.770619 238.804127 
L 267.353901 239.621626 
L 267.937182 234.473208 
L 268.520464 232.509599 
L 269.103745 237.915435 
L 269.687027 249.206858 
L 270.270309 245.716872 
L 270.85359 251.334353 
L 272.020154 224.174125 
L 272.603435 223.304401 
L 273.186717 219.368766 
L 273.769998 217.220974 
L 274.35328 219.466787 
L 274.936562 219.147543 
L 275.519843 219.920712 
L 276.103125 228.955393 
L 276.686406 230.283146 
L 277.269688 234.722784 
L 277.85297 226.538734 
L 278.436251 224.721933 
L 279.019533 227.327297 
L 279.602814 225.22801 
L 280.769378 238.440663 
L 281.352659 235.036052 
L 281.935941 250.635361 
L 282.519223 254.19425 
L 283.102504 264.22086 
L 283.685786 261.512382 
L 284.269067 289.687517 
L 284.852349 284.918856 
L 285.435631 286.36859 
L 286.018912 290.377898 
L 286.602194 277.952299 
L 287.185475 282.101883 
L 287.768757 284.661732 
L 288.352039 276.814544 
L 288.93532 274.503555 
L 289.518602 286.026387 
L 290.101884 287.223183 
L 290.685165 280.912561 
L 291.268447 283.108143 
L 291.851728 290.134698 
L 292.43501 292.031238 
L 293.018292 283.262883 
L 293.601573 283.670547 
L 294.184855 283.446158 
L 294.768136 285.535207 
L 295.351418 286.371051 
L 296.517981 294.14406 
L 297.101263 294.489818 
L 297.684544 301.546893 
L 298.267826 297.998375 
L 298.851108 285.253112 
L 299.434389 287.739094 
L 300.017671 286.480258 
L 300.600953 293.229052 
L 301.184234 292.578532 
L 301.767516 292.830148 
L 302.350797 288.082024 
L 302.934079 280.869737 
L 303.517361 275.970784 
L 304.100642 275.732164 
L 304.683924 279.229631 
L 305.267205 279.819311 
L 305.850487 276.570924 
L 306.433769 280.383788 
L 307.01705 280.333398 
L 307.600332 269.571896 
L 308.183613 270.725948 
L 308.766895 273.792722 
L 309.350177 274.851393 
L 309.933458 273.343324 
L 310.51674 285.577851 
L 311.100022 284.754048 
L 311.683303 287.239615 
L 312.266585 287.089927 
L 312.849866 285.56314 
L 313.433148 280.895797 
L 314.01643 280.28982 
L 314.599711 280.423255 
L 315.182993 286.300167 
L 315.766274 283.743206 
L 316.349556 290.814767 
L 317.516119 283.732568 
L 318.099401 282.316569 
L 318.682683 281.751408 
L 319.265964 281.774014 
L 319.849246 279.783054 
L 320.432527 281.085607 
L 321.015809 283.412867 
L 322.182372 291.684975 
L 322.765654 298.941643 
L 323.348935 300.475413 
L 323.932217 298.220167 
L 324.515499 302.085818 
L 325.09878 295.862335 
L 325.682062 297.583049 
L 326.848625 293.714431 
L 327.431907 292.370775 
L 328.015188 281.234442 
L 328.59847 281.338058 
L 329.181752 280.59955 
L 329.765033 280.17865 
L 330.348315 280.100736 
L 330.931596 282.436836 
L 331.514878 276.531797 
L 332.09816 277.005836 
L 332.681441 276.581748 
L 333.264723 280.032635 
L 333.848004 271.085545 
L 334.431286 268.580277 
L 335.597849 261.566617 
L 336.181131 260.494386 
L 336.764413 252.683787 
L 337.347694 254.017342 
L 337.930976 256.046881 
L 338.514257 254.242602 
L 339.097539 253.876705 
L 339.680821 261.881142 
L 340.264102 261.850345 
L 340.847384 258.323996 
L 341.430665 257.425629 
L 342.013947 259.892092 
L 342.597229 259.21424 
L 343.18051 265.961815 
L 343.763792 274.351721 
L 344.347073 271.843806 
L 344.930355 276.488983 
L 345.513637 276.478179 
L 346.096918 273.500178 
L 346.6802 268.929967 
L 347.263482 268.187817 
L 347.846763 262.763215 
L 348.430045 267.820157 
L 349.013326 269.501879 
L 349.596608 270.174443 
L 350.17989 275.128797 
L 350.763171 275.879744 
L 351.346453 271.868141 
L 351.929734 274.597537 
L 352.513016 275.170466 
L 353.096298 272.451573 
L 353.679579 265.978354 
L 354.262861 271.459139 
L 354.846142 275.802538 
L 355.429424 277.956434 
L 356.012706 274.678289 
L 356.595987 272.850456 
L 357.179269 270.126405 
L 357.762551 273.827645 
L 358.345832 271.400864 
L 358.929114 272.689367 
L 359.512395 280.790806 
L 360.095677 280.445861 
L 360.678959 280.865222 
L 361.26224 278.177619 
L 361.845522 281.216288 
L 362.428803 279.437574 
L 363.012085 273.400074 
L 363.595367 275.452865 
L 364.178648 275.502928 
L 364.76193 278.533134 
L 365.345212 278.65949 
L 365.928493 279.951099 
L 366.511775 278.371062 
L 367.095056 279.37613 
L 367.678338 278.930503 
L 368.26162 278.138028 
L 368.844901 276.570881 
L 369.428183 276.885989 
L 370.594746 270.306548 
L 371.178028 269.175312 
L 371.761309 267.31719 
L 372.344591 268.790707 
L 372.927872 269.622303 
L 373.511154 265.027228 
L 374.094436 258.416407 
L 374.677717 253.216014 
L 375.260999 253.355676 
L 375.844281 252.898207 
L 376.427562 257.012329 
L 377.010844 264.469178 
L 377.594125 258.935885 
L 378.177407 257.51481 
L 378.760689 254.926069 
L 379.34397 257.744947 
L 379.927252 253.186548 
L 380.510533 251.375847 
L 381.093815 244.267783 
L 381.677097 243.276224 
L 382.260378 239.503338 
L 382.84366 234.846484 
L 383.426941 240.408018 
L 384.010223 235.248327 
L 384.593505 236.532301 
L 385.176786 230.952462 
L 386.34335 233.246274 
L 386.926631 233.545325 
L 387.509913 234.911501 
L 388.093194 229.429656 
L 388.676476 234.184418 
L 389.259758 230.555551 
L 389.843039 245.142616 
L 390.426321 279.262951 
L 391.009602 272.847748 
L 391.592884 263.730553 
L 392.176166 252.220333 
L 392.759447 249.123193 
L 393.342729 244.828816 
L 393.926011 246.728449 
L 394.509292 239.749371 
L 395.092574 243.12938 
L 395.675855 242.65362 
L 396.259137 230.087569 
L 396.842419 225.54121 
L 397.4257 229.704985 
L 398.008982 222.412776 
L 399.175545 211.366767 
L 399.758827 209.321744 
L 400.342108 220.469573 
L 400.92539 219.946673 
L 401.508671 241.834991 
L 402.091953 227.131482 
L 402.675235 223.548048 
L 403.258516 223.287469 
L 403.841798 217.235395 
L 404.42508 220.076467 
L 405.008361 237.315238 
L 405.591643 226.600743 
L 406.758206 239.883074 
L 407.341488 242.535194 
L 407.341488 242.535194 
" style="fill:none;stroke:#008000;stroke-linecap:square;stroke-width:1.5;"/>
   </g>
   <g id="patch_20">
    <path d="M 252.392727 307.584 
L 252.392727 186.624 
" style="fill:none;stroke:#000000;stroke-linecap:square;stroke-linejoin:miter;stroke-width:0.8;"/>
   </g>
   <g id="patch_21">
    <path d="M 414.72 307.584 
L 414.72 186.624 
" style="fill:none;stroke:#000000;stroke-linecap:square;stroke-linejoin:miter;stroke-width:0.8;"/>
   </g>
   <g id="patch_22">
    <path d="M 252.392727 307.584 
L 414.72 307.584 
" style="fill:none;stroke:#000000;stroke-linecap:square;stroke-linejoin:miter;stroke-width:0.8;"/>
   </g>
   <g id="patch_23">
    <path d="M 252.392727 186.624 
L 414.72 186.624 
" style="fill:none;stroke:#000000;stroke-linecap:square;stroke-linejoin:miter;stroke-width:0.8;"/>
   </g>
   <g id="text_37">
    <!-- 收益率 -->
    <defs>
     <path d="M 39.453125 31.390625 
Q 40.96875 31.5 61.375 32.515625 
Q 58.9375 35.9375 56.640625 38.921875 
L 61.921875 42.234375 
Q 68.953125 34.421875 74.90625 25.828125 
L 68.65625 21.921875 
Q 66.9375 24.515625 65.28125 26.953125 
Q 46.734375 25.921875 34.578125 24.953125 
Q 32.421875 24.75 29.390625 24.078125 
L 26.953125 30.71875 
Q 29.890625 31.6875 31.34375 32.5625 
Q 39.59375 38.140625 47.65625 45.515625 
Q 40.578125 45.21875 35.546875 44.78125 
Q 33.5 44.484375 31.0625 43.890625 
L 28.125 49.859375 
Q 30.5625 50.734375 32.625 52.59375 
Q 39.203125 58.15625 44.921875 66.0625 
L 3.609375 66.0625 
L 3.609375 72.90625 
L 47.359375 72.90625 
Q 44.96875 77.25 42.875 80.515625 
L 49.90625 83.9375 
Q 53.71875 78.125 56.5 72.90625 
L 96.484375 72.90625 
L 96.484375 66.0625 
L 47.703125 66.0625 
L 52.34375 63.625 
Q 44.4375 55.515625 38.96875 50.734375 
Q 44.53125 50.875 53.515625 51.078125 
Q 57.421875 54.984375 61.328125 59.328125 
L 68.0625 55.421875 
Q 52.546875 40.671875 39.453125 31.390625 
z
M 2.25 15.484375 
L 46.78125 15.484375 
L 46.78125 24.078125 
L 54.5 24.078125 
L 54.5 15.484375 
L 98.046875 15.484375 
L 98.046875 8.640625 
L 54.5 8.640625 
L 54.5 -13.328125 
L 46.78125 -13.328125 
L 46.78125 8.640625 
L 2.25 8.640625 
z
M 26.859375 41.75 
L 30.375 35.984375 
Q 18.75 29.15625 6.640625 22.015625 
L 2.546875 28.5625 
Q 12.703125 33.34375 26.859375 41.75 
z
M 75.875 41.84375 
Q 89.84375 33.9375 97.65625 28.375 
L 93.359375 22.015625 
Q 83.296875 29.828125 71.875 36.578125 
z
M 93.65625 56.109375 
Q 86.234375 49.65625 77.546875 43.890625 
L 72.5625 49.078125 
Q 81.9375 55.21875 88.09375 61.375 
z
M 5.671875 56.78125 
L 10.640625 61.578125 
Q 18.75 55.125 24.8125 49.359375 
L 19.34375 44 
Q 13.671875 49.953125 5.671875 56.78125 
z
" id="MicrosoftYaHei-7387"/>
    </defs>
    <g transform="translate(315.556364 180.624)scale(0.12 -0.12)">
     <use xlink:href="#MicrosoftYaHei-6536"/>
     <use x="100" xlink:href="#MicrosoftYaHei-76ca"/>
     <use x="200" xlink:href="#MicrosoftYaHei-7387"/>
    </g>
   </g>
   <g id="legend_3">
    <g id="patch_24">
     <path d="M 307.556364 225.583375 
L 359.556364 225.583375 
Q 361.556364 225.583375 361.556364 223.583375 
L 361.556364 193.624 
Q 361.556364 191.624 359.556364 191.624 
L 307.556364 191.624 
Q 305.556364 191.624 305.556364 193.624 
L 305.556364 223.583375 
Q 305.556364 225.583375 307.556364 225.583375 
z
" style="fill:#ffffff;opacity:0.8;stroke:#cccccc;stroke-linejoin:miter;"/>
    </g>
    <g id="line2d_45">
     <path d="M 309.556364 200.11775 
L 329.556364 200.11775 
" style="fill:none;stroke:#ff0000;stroke-linecap:square;stroke-width:1.5;"/>
    </g>
    <g id="line2d_46"/>
    <g id="text_38">
     <!-- 网格 -->
     <g transform="translate(337.556364 203.61775)scale(0.1 -0.1)">
      <use xlink:href="#MicrosoftYaHei-7f51"/>
      <use x="100" xlink:href="#MicrosoftYaHei-683c"/>
     </g>
    </g>
    <g id="line2d_47">
     <path d="M 309.556364 215.597437 
L 329.556364 215.597437 
" style="fill:none;stroke:#008000;stroke-linecap:square;stroke-width:1.5;"/>
    </g>
    <g id="line2d_48"/>
    <g id="text_39">
     <!-- 定投 -->
     <g transform="translate(337.556364 219.097437)scale(0.1 -0.1)">
      <use xlink:href="#MicrosoftYaHei-5b9a"/>
      <use x="100" xlink:href="#MicrosoftYaHei-6295"/>
     </g>
    </g>
   </g>
  </g>
 </g>
 <defs>
  <clipPath id="p0c8db5dc8e">
   <rect height="120.96" width="162.327273" x="57.6" y="41.472"/>
  </clipPath>
  <clipPath id="p599b5c73e0">
   <rect height="120.96" width="162.327273" x="252.392727" y="41.472"/>
  </clipPath>
  <clipPath id="p6172c5c3d3">
   <rect height="120.96" width="162.327273" x="57.6" y="186.624"/>
  </clipPath>
  <clipPath id="p4decee759c">
   <rect height="120.96" width="162.327273" x="252.392727" y="186.624"/>
  </clipPath>
 </defs>
</svg>
